HIERARCHY
ROOT pelvis
{
  OFFSET 0 100 0
  CHANNELS 6 Xposition Yposition Zposition Zrotation Xrotation Yrotation
  JOINT pelvis_right_femur
  {
    OFFSET -10.78128 -3.44521 -0.5502486
    CHANNELS 3 Zrotation Xrotation Yrotation
    JOINT right_femur_tibia
    {
      OFFSET -0.8047443 -44.0398 -0.1307829
      CHANNELS 3 Zrotation Xrotation Yrotation
      JOINT right_tibia_foot
      {
        OFFSET 3.006224 -47.83518 -5
        CHANNELS 3 Zrotation Xrotation Yrotation
        End Site
        {
          OFFSET 0 -5 15
        }
      }
    }
  }
  JOINT pelvis_left_femur
  {
    OFFSET 10.78128 -3.44521 -0.5502486
    CHANNELS 3 Zrotation Xrotation Yrotation
    JOINT left_femur_tibia
    {
      OFFSET 0.8047443 -44.0398 -0.1307829
      CHANNELS 3 Zrotation Xrotation Yrotation
      JOINT left_tibia_foot
      {
        OFFSET -4.370144 -48.10324 -4.275266
        CHANNELS 3 Zrotation Xrotation Yrotation
        End Site
        {
          OFFSET 0 -5 15
        }
      }
    }
  }
  JOINT pelvis_spine1
  {
    OFFSET 0 6.468898 -3.129235
    CHANNELS 3 Zrotation Xrotation Yrotation
    JOINT spine1
    {
      OFFSET 0 23.15396 4.99043
      CHANNELS 3 Zrotation Xrotation Yrotation
      JOINT spine2
      {
        OFFSET 0 20.79997 -5.064912
        CHANNELS 3 Zrotation Xrotation Yrotation
        JOINT neck
        {
          OFFSET 0 14.38658 9.616178
          CHANNELS 3 Zrotation Xrotation Yrotation
          End Site
          {
            OFFSET 0 20 0
          }
        }
      }
      JOINT right_manubrium
      {
        OFFSET -5.722621 16.35077 3.967754
        CHANNELS 3 Zrotation Xrotation Yrotation
        JOINT right_clavicle
        {
          OFFSET -13.16364 1.694482 -4.693211
          CHANNELS 3 Zrotation Xrotation Yrotation
          JOINT right_humerus
          {
            OFFSET -28.5034 -0.3100689 -2.792744
            CHANNELS 3 Zrotation Xrotation Yrotation
            JOINT right_radius
            {
              OFFSET -25.15693 0.02248979 -1.271978
              CHANNELS 3 Zrotation Xrotation Yrotation
              End Site
              {
                OFFSET -15 0 0
              }
            }
          }
        }
      }
      JOINT left_manubrium
      {
        OFFSET 5.722621 16.35077 3.967754
        CHANNELS 3 Zrotation Xrotation Yrotation
        JOINT left_clavicle
        {
          OFFSET 13.16364 1.694482 -4.693211
          CHANNELS 3 Zrotation Xrotation Yrotation
          JOINT left_humerus
          {
            OFFSET 29.39168 -1.063119 -2.237045
            CHANNELS 3 Zrotation Xrotation Yrotation
            JOINT left_radius
            {
              OFFSET 24.59957 -0.9528479 0.9047498
              CHANNELS 3 Zrotation Xrotation Yrotation
              End Site
              {
                OFFSET 15 -0 -0
              }
            }
          }
        }
      }
    }
  }
}
MOTION
Frames: 8
Frame Time: 0.0416666666667
0 103.5113 0 1.388103 -3.481187 0.9290469 0.2042795 -14.51053 3.203215 1.809964e-13 40.82604 2.302728e-12 -2.937761 -4.746267 -3.79851 -6.794688 10.27975 -17.06515 3.345054e-11 0.4478885 -1.268979e-10 1.039962 -19.64153 20.10917 -4.006224 -1.437537 3.049912 1.285646 8.71424 -6.692244 1.25587 22.45571 7.461448 2.991607 -21.06271 9.058757 3.788665 -17.71749 10.43494 85.85087 30.68526 -16.55845 1.120015e-12 4.423503e-13 14.56396 -16.36083 9.949915 9.499459 5.476551 -18.46941 -3.13267 -89.14326 27.8618 16.72535 4.726962e-12 1.008765e-12 -16.36714 1.254751 12.28378 11.74408
0.6339904 103.1863 3.917903 1.427547 -3.295288 1.810506 0.1896032 -16.00634 3.159776 -1.822837e-12 41.1182 4.094264e-12 -2.977044 -4.483691 -3.905121 -6.903315 11.64175 -17.3997 3.164266e-11 -0.0752555 -1.342995e-10 1.201885 -20.20065 20.15619 -4.070707 -1.48122 2.891663 1.37254 8.699739 -6.871924 1.245665 22.51751 7.568576 3.04852 -21.2495 9.176764 3.904469 -17.5679 10.4491 86.48263 30.90047 -17.21939 8.978826e-13 4.625093e-13 14.22731 -16.12665 9.939774 9.319851 5.602261 -18.71974 -3.151744 -89.2091 28.01521 16.27763 4.45476e-12 2.094858e-12 -16.94902 1.435015 12.44318 11.59201
1.281064 102.8634 7.806172 1.431865 -3.104855 2.706816 0.2732223 -17.75114 3.081753 -4.69131e-12 40.76791 6.557965e-12 -3.080377 -4.20718 -4.042999 -6.952365 13.18182 -17.6092 2.861118e-11 0.1037354 -1.396077e-10 1.28078 -20.66073 20.03464 -4.077179 -1.516914 2.707888 1.48926 8.7004 -7.089292 1.232722 22.53593 7.644862 3.094986 -21.40705 9.251213 3.982772 -17.33149 10.45844 87.10157 31.05108 -18.03032 5.306548e-13 4.725246e-13 13.67402 -15.82129 9.937981 9.046655 5.72547 -19.05361 -3.20666 -88.97941 28.08574 15.57041 3.85914e-12 3.625753e-12 -17.75742 1.692382 12.59493 11.3112
1.920356 102.5509 11.6838 1.402527 -2.933669 3.592556 0.4556938 -19.55348 2.980292 -8.058021e-12 39.75316 9.352435e-12 -3.242388 -3.951074 -4.198445 -6.935261 14.72537 -17.65722 2.469575e-11 1.043199 -1.418653e-10 1.255726 -20.95513 19.74222 -4.018781 -1.539708 2.519743 1.624763 8.719289 -7.32222 1.218456 22.5077 7.678333 3.12439 -21.51569 9.26917 4.010315 -17.03162 10.46351 87.64354 31.11289 -18.91006 4.84762e-14 4.734693e-13 12.95245 -15.47869 9.946456 8.705879 5.830714 -19.44144 -3.295009 -88.47015 28.05097 14.67115 2.993877e-12 5.465153e-12 -18.71812 2.00317 12.71994 10.92472
2.530774 102.2583 15.56965 1.3409 -2.774699 4.445876 0.7290922 -21.49511 2.86139 -1.187527e-11 38.15409 1.242371e-11 -3.461713 -3.701086 -4.376876 -6.869066 16.34968 -17.58157 1.98605e-11 2.658459 -1.416616e-10 1.144353 -21.13265 19.30117 -3.905231 -1.553773 2.320165 1.783122 8.757136 -7.581799 1.202326 22.44781 7.680732 3.142738 -21.59669 9.244818 3.999207 -16.67131 10.46983 88.18411 31.10653 -19.90264 -5.519138e-13 4.721396e-13 12.06238 -15.09523 9.965928 8.296753 5.927485 -19.8995 -3.41614 -87.74693 27.92321 13.58617 1.886901e-12 7.659291e-12 -19.85696 2.373444 12.83185 10.43639
3.101941 101.9906 19.47945 1.259742 -2.652426 5.246886 1.06141 -23.24259 2.742147 -1.547841e-11 36.11237 1.519889e-11 -3.706935 -3.498303 -4.54707 -6.757589 17.77073 -17.3579 1.464125e-11 4.782836 -1.38404e-10 0.9479622 -21.12177 18.74382 -3.743073 -1.553833 2.139772 1.938607 8.802623 -7.820289 1.187068 22.3403 7.638883 3.140004 -21.6114 9.165269 3.939514 -16.28765 10.46633 88.53085 31.01545 -20.81142 -1.186117e-12 4.701445e-13 11.11833 -14.71561 9.986555 7.869532 5.991923 -20.34154 -3.552689 -86.81095 27.69193 12.44205 6.906648e-13 9.885495e-12 -20.9881 2.74759 12.89622 9.904262
3.628216 101.7524 23.43215 1.168382 -2.566218 5.98267 1.434232 -24.84365 2.634222 -1.881505e-11 33.84816 1.765461e-11 -3.972596 -3.341331 -4.715101 -6.62589 19.03878 -17.05765 9.104215e-12 7.24851 -1.330653e-10 0.7025034 -21.00397 18.14802 -3.554548 -1.546376 1.981607 2.092826 8.867676 -8.05134 1.172116 22.23823 7.578443 3.130498 -21.61275 9.064025 3.85453 -15.9229 10.47573 88.90084 30.87873 -21.71394 -1.833183e-12 4.717353e-13 10.17504 -14.3746 10.02246 7.454563 6.039879 -20.79664 -3.70243 -85.91151 27.40321 11.34373 -5.293046e-13 1.210725e-11 -22.12327 3.118541 12.94504 9.36884
4.114956 101.5438 27.44343 1.082485 -2.52981 6.646299 1.811349 -26.08518 2.549458 -2.151752e-11 31.59414 1.951955e-11 -4.231398 -3.256952 -4.861554 -6.485549 19.97914 -16.70273 3.719359e-12 9.821968 -1.259198e-10 0.4309234 -20.77609 17.58055 -3.357718 -1.530934 1.868293 2.227518 8.948758 -8.246915 1.159257 22.15618 7.503963 3.114591 -21.59976 8.950112 3.750265 -15.62461 10.49988 89.25953 30.70645 -22.50452 -2.418669e-12 4.740501e-13 9.345108 -14.1201 10.07397 7.103662 6.063316 -21.21445 -3.850356 -85.1657 27.0894 10.43119 -1.647963e-12 1.405548e-11 -23.13017 3.441478 12.97188 8.893962
